<svg width="102" height="111" viewBox="0 0 102 111" fill="none" xmlns="http://www.w3.org/2000/svg">
<g clip-path="url(#clip0_5_529)">
<path d="M52.1607 62.2247C49.5649 62.2247 46.9684 62.2177 44.3726 62.2264C41.459 62.2369 38.5444 62.2613 35.6307 62.2804C35.4014 62.2822 35.1721 62.2952 34.9427 62.304C34.6723 62.315 34.5223 62.4451 34.4927 62.6942C34.3824 63.6255 34.2938 64.5602 34.1583 65.4888C33.75 68.2781 33.2096 71.0405 32.142 73.6844C31.857 74.3891 31.52 75.0703 31.0726 75.6984C30.7937 76.0896 30.4775 76.4476 30.0562 76.7107C29.4333 77.1009 28.7879 77.0914 28.1815 76.6749C27.788 76.4049 27.5013 76.0451 27.252 75.6557C26.6039 74.6426 26.2208 73.5293 25.9063 72.3942C25.3425 70.3654 25.0359 68.2956 24.8152 66.211C24.4799 63.0383 24.4295 59.8578 24.5459 56.6756C24.6823 52.9393 25.068 49.2257 25.8994 45.5644C26.279 43.8935 26.7412 42.2454 27.4752 40.6765C27.7628 40.0623 28.0903 39.4699 28.5342 38.9429C29.647 37.6223 30.8589 37.6571 31.8953 39.0422C32.3279 39.6206 32.6293 40.2627 32.8873 40.923C33.5145 42.532 33.8838 44.2019 34.1583 45.891C34.5301 48.1769 34.7325 50.4784 34.8002 52.7912C34.8124 53.1963 34.8159 53.2024 35.3119 53.2007C38.4028 53.1885 41.4928 53.1806 44.5837 53.1588C49.5815 53.1231 54.5783 53.0761 59.576 53.036C62.878 53.0099 66.18 52.9872 69.482 52.9628C69.9633 52.9594 69.9589 52.9576 70.0024 52.502C70.3012 49.3468 70.7408 46.2133 71.6955 43.1653C72.063 41.9919 72.5034 40.8437 73.1784 39.7914C73.5016 39.2879 73.8716 38.8192 74.3911 38.4786C75.1087 38.0082 75.8506 38.023 76.5464 38.5222C76.8452 38.7365 77.0902 38.9995 77.3091 39.2853C77.601 39.6659 77.8391 40.0762 78.0476 40.5022C78.6817 41.8002 79.0917 43.167 79.4166 44.5582C80.036 47.2134 80.334 49.9078 80.4921 52.6196C80.612 54.679 80.6259 56.7383 80.5599 58.7968C80.4713 61.56 80.2263 64.3119 79.7407 67.0411C79.3324 69.3392 78.8129 71.6102 77.833 73.7628C77.601 74.2715 77.3256 74.7567 76.999 75.2158C76.761 75.5503 76.4908 75.8604 76.1624 76.1192C75.3441 76.7638 74.4754 76.7594 73.671 76.1035C73.2227 75.7376 72.9004 75.2777 72.6146 74.7933C72.1811 74.0598 71.8623 73.2793 71.5947 72.4813C70.9623 70.5927 70.5861 68.6519 70.3108 66.6918C70.1101 65.264 69.9685 63.831 69.892 62.3919C69.879 62.1471 69.7748 62.0696 69.5367 62.0757C68.9721 62.0897 68.4074 62.0992 67.8419 62.1019C62.6139 62.1236 57.3869 62.1428 52.1589 62.1637C52.1589 62.1837 52.1589 62.2038 52.1589 62.2238L52.1607 62.2247Z" fill="black"/>
<path d="M43.8375 18.9845C43.7732 18.0864 43.7115 17.1874 43.6455 16.2892C43.5273 14.6855 43.4057 13.0817 43.2867 11.4789C43.152 9.6582 43.0174 7.83754 42.8862 6.01688C42.755 4.19622 42.6247 2.37469 42.5005 0.553165C42.4675 0.0688177 42.5161 0.0200346 43.0122 0.0174212C45.1675 0.0087099 47.3219 0.00348313 49.4772 0.000869751C49.9497 0.000869751 49.9567 0.00609651 49.9871 0.484346C50.1018 2.28932 50.2086 4.09517 50.3224 5.90015C50.5135 8.94213 50.7107 11.9841 50.8992 15.0261C51.099 18.2519 51.2884 21.4785 51.4874 24.7052C51.6411 27.1957 51.8027 29.6863 51.9608 32.1769C51.9669 32.277 51.9747 32.3781 51.9739 32.4783C51.9721 32.6455 51.9061 32.7352 51.7089 32.7866C50.3311 33.1455 48.9594 33.5227 47.5851 33.8947C47.1134 34.0219 47.1255 34.0123 46.8137 33.6543C45.6418 32.3127 44.4621 30.9773 43.285 29.6401C41.405 27.5059 39.526 25.3716 37.6426 23.24C37.5349 23.118 37.4637 22.9534 37.2726 22.9028C37.2152 23.0858 37.3229 23.2365 37.3681 23.3915C38.1543 26.0502 38.9492 28.7063 39.7423 31.3632C39.7571 31.4111 39.771 31.4599 39.784 31.5087C39.897 31.9329 39.8865 31.9634 39.4339 32.0375C37.7625 32.3101 36.1293 32.7387 34.4849 33.122C34.0088 33.2327 33.9793 33.2248 33.8159 32.7544C32.4581 28.8439 31.1012 24.9334 29.7451 21.0229C28.191 16.5392 26.6386 12.0555 25.0862 7.57184C24.7935 6.72598 24.823 6.77912 25.6761 6.59879C27.3805 6.23815 29.0849 5.87489 30.7815 5.48288C31.2098 5.38357 31.4548 5.44368 31.7588 5.78516C34.0705 8.38461 36.4151 10.957 38.7502 13.5382C40.3261 15.2796 41.902 17.0218 43.4787 18.7624C43.5577 18.8495 43.6429 18.9305 43.7245 19.0141C43.7627 19.0037 43.8001 18.9941 43.8383 18.9836L43.8375 18.9845Z" fill="black"/>
<path d="M52.0337 18.9462C52.0007 12.0939 57.9071 6.45767 65.147 6.43328C72.4772 6.40889 78.4305 11.9763 78.4271 18.9488C78.4236 26.1007 72.3426 31.4338 65.3294 31.4826C57.9549 31.534 51.9877 25.8498 52.0337 18.9462ZM64.3095 12.6505C60.5715 12.6357 57.4866 15.5035 57.4893 19.042C57.4919 22.7687 60.601 25.4796 64.1636 25.5153C67.9547 25.5528 71.0412 22.7051 71.0569 19.2066C71.0734 15.5662 68.0885 12.6653 64.3095 12.6514V12.6505Z" fill="black"/>
<path d="M13.1265 59.0912C13.2472 56.7819 13.361 54.476 13.5487 52.171C13.8371 48.6255 14.8708 45.2664 16.1453 41.9561C16.8116 40.2261 17.8245 38.6798 19.0277 37.2398C19.3239 36.8862 19.6844 36.6649 20.1509 36.5386C20.8024 36.3618 21.4479 36.2685 22.129 36.2825C23.717 36.3165 25.3059 36.3095 26.8947 36.3217C27.0181 36.3226 27.1423 36.3313 27.264 36.3461C27.7235 36.401 27.919 36.7311 27.7261 37.1397C27.6618 37.2764 27.5706 37.4019 27.4916 37.5325C25.7776 40.3602 24.3816 43.3168 23.5346 46.486C22.969 48.6011 22.6867 50.7615 22.5129 52.9341C22.3783 54.6197 22.2723 56.308 22.1863 57.9962C21.9761 62.101 22.5633 66.1064 23.8152 70.0387C24.4797 72.1259 25.3067 74.1513 26.1485 76.1749C26.3301 76.6105 26.5186 77.0434 26.7028 77.4781C26.8452 77.8135 26.7783 78.06 26.4456 78.2404C26.0782 78.4407 25.6933 78.5836 25.2468 78.5853C23.5676 78.5897 21.8927 78.4939 20.2213 78.3693C19.2952 78.3005 18.4752 77.864 17.6594 77.4659C17.5578 77.4163 17.4848 77.303 17.4162 77.2072C17.3172 77.0687 17.2216 76.9258 17.1486 76.7743C16.0323 74.4605 14.9377 72.1364 14.2853 69.6563C13.9439 68.3565 13.7606 67.0281 13.573 65.6996C13.2637 63.5035 13.1994 61.296 13.1265 59.0895V59.0912Z" fill="black"/>
<path d="M90.1382 56.7026C90.14 59.6052 89.875 62.4869 89.4285 65.359C89.0654 67.698 88.6145 70.016 87.8952 72.2819C87.4834 73.5807 87.0282 74.8656 86.408 76.0922C86.0935 76.7133 85.5558 77.1506 85.0189 77.5774C84.7209 77.8135 84.3222 77.8893 83.9217 77.8884C82.14 77.8832 80.3565 77.9198 78.5817 77.7125C78.5113 77.7046 78.4401 77.7038 78.3706 77.695C77.7599 77.6166 77.6426 77.4111 77.9093 76.9006C77.964 76.796 78.0414 76.6889 78.0483 76.5791C78.0857 76.0233 78.3723 75.5599 78.6243 75.0808C79.7136 73.0119 80.3991 70.8245 80.8056 68.5482C81.1566 66.5821 81.4085 64.6055 81.6552 62.6263C81.7543 61.8283 81.862 61.0312 81.9749 60.2342C82.0852 59.4528 82.1043 58.6644 82.1513 57.8795C82.318 55.0971 82.2494 52.3243 81.7951 49.5637C81.6318 48.5724 81.5892 47.5645 81.4702 46.5662C81.134 43.7585 80.095 41.1774 78.6408 38.7321C78.52 38.5291 78.3819 38.334 78.381 38.084C78.3793 37.7739 78.447 37.6554 78.7598 37.563C79.0803 37.4681 79.4148 37.4167 79.751 37.4184C81.5015 37.428 83.2398 37.5482 84.9598 37.8915C86.0631 38.111 86.8076 38.7034 87.182 39.6938C87.7475 41.1904 88.241 42.7088 88.6319 44.2559C89.3416 47.0636 89.7108 49.9209 90.0036 52.7877C90.1365 54.0892 90.1452 55.3968 90.1391 56.7035L90.1382 56.7026Z" fill="black"/>
<path d="M73.0827 96.2457C72.7274 94.8737 72.3964 93.5914 72.0637 92.3091C71.2445 89.1556 70.4235 86.0012 69.6035 82.8478C69.5904 82.799 69.5791 82.7502 69.5687 82.7005C69.494 82.3521 69.4923 82.3451 69.8554 82.2554C70.983 81.9766 72.1114 81.704 73.2399 81.4287C73.7012 81.3163 74.1625 81.2005 74.6246 81.0898C75.0859 80.9792 75.0885 80.9801 75.1763 81.4113C75.5655 83.3356 75.9538 85.2599 76.3404 87.1842C77.4923 92.9076 78.6442 98.6317 79.7952 104.355C79.9707 105.227 80.1471 106.098 80.3208 106.97C80.3399 107.068 80.3651 107.17 80.3556 107.266C80.326 107.565 80.2296 107.642 79.8699 107.669C78.8666 107.743 77.8632 107.818 76.8598 107.885C75.6037 107.968 75.9503 108.168 75.2449 107.122C73.1044 103.946 70.9752 100.766 68.839 97.5881C68.7486 97.4531 68.68 97.298 68.4993 97.1708C68.4541 97.3886 68.5106 97.5637 68.5428 97.7353C69.223 101.362 69.9066 104.988 70.5886 108.615C70.6763 109.083 70.5686 109.221 70.05 109.25C68.9927 109.309 67.9338 109.351 66.8757 109.401C66.4353 109.422 65.9948 109.45 65.5535 109.467C65.0349 109.487 65.0279 109.484 64.968 109.013C64.6631 106.603 64.3634 104.192 64.0593 101.782C63.7865 99.6205 63.5059 97.4609 63.234 95.2997C62.9135 92.756 62.599 90.2123 62.2802 87.6686C62.1777 86.8541 62.0691 86.0396 61.9657 85.2251C61.9509 85.1092 61.9483 84.9916 61.9353 84.8749C61.9101 84.6475 62.0057 84.5299 62.2559 84.5177C62.6963 84.4968 63.1367 84.4646 63.5772 84.4376C64.141 84.4027 64.7056 84.381 65.2668 84.3269C65.53 84.3017 65.6908 84.3627 65.828 84.5874C67.4803 87.2984 69.1413 90.005 70.8005 92.7124C71.4217 93.7255 72.0437 94.7395 72.6718 95.7492C72.7682 95.9042 72.829 96.088 73.0835 96.2466L73.0827 96.2457Z" fill="black"/>
<path d="M21.309 96.2231C21.3924 93.1279 22.6555 89.8934 25.451 87.2722C27.0338 85.7887 28.9146 84.7904 31.1255 84.4393C34.3389 83.9288 37.1292 84.7851 39.5008 86.8889C40.214 87.5222 40.8004 88.254 41.319 89.038C41.4693 89.2654 41.458 89.4195 41.2321 89.592C39.9933 90.5355 38.811 91.5442 37.5401 92.4502C37.0918 92.7699 37.0814 92.7664 36.7243 92.3335C36.2075 91.7071 35.6072 91.1662 34.8792 90.7689C33.0705 89.7828 31.2601 89.7314 29.4827 90.8316C28.5245 91.424 27.8409 92.2586 27.3943 93.2464C26.2554 95.7657 26.4005 98.2615 27.7818 100.642C28.6496 102.137 29.9927 103.152 31.8126 103.49C32.4094 103.601 33.008 103.569 33.597 103.42C33.8124 103.366 33.9557 103.286 33.9757 103.023C34.0548 102.021 34.1738 101.023 34.2659 100.022C34.2998 99.6518 34.2876 99.6414 33.9028 99.5691C32.9168 99.3835 31.9282 99.2075 30.9413 99.0264C30.4705 98.9401 30.4887 98.9401 30.54 98.488C30.6616 97.4226 30.765 96.3555 30.8753 95.2892C30.9144 94.9059 30.9482 94.5218 30.9908 94.1393C31.029 93.7935 31.0951 93.7325 31.4643 93.7822C31.7952 93.8266 32.1201 93.9102 32.4468 93.9799C34.8731 94.4965 37.3003 95.0139 39.7266 95.5314C39.7779 95.5427 39.8283 95.5601 39.8795 95.5732C40.3243 95.6821 40.3269 95.683 40.2392 96.115C39.2671 100.897 38.295 105.678 37.322 110.46C37.3116 110.51 37.2986 110.557 37.2864 110.607C37.1848 111.022 37.1848 111.026 36.7287 110.982C35.7809 110.889 34.8331 110.795 33.8871 110.693C33.3103 110.631 33.259 110.57 33.3033 110.034C33.3494 109.467 33.405 108.9 33.4554 108.333C33.4901 107.945 33.4797 107.938 33.0618 107.994C31.6441 108.181 30.2446 108.114 28.8755 107.698C25.9627 106.812 23.9499 104.961 22.619 102.4C21.7051 100.642 21.3098 98.7668 21.3081 96.2222L21.309 96.2231Z" fill="black"/>
<path d="M3.43335 58.728C3.51153 55.9046 3.78692 53.3418 4.21259 50.7911C4.43064 49.4853 4.60872 48.1716 4.96055 46.8902C5.35842 45.4398 6.03863 44.0947 6.76314 42.7706C6.95947 42.4117 7.2531 42.119 7.62751 41.9056C8.12789 41.6199 8.65173 41.3838 9.19989 41.1904C9.4023 41.119 9.60558 41.0841 9.82015 41.0841C11.2327 41.0841 12.6443 41.011 14.0577 41.011C14.5877 41.011 14.7041 41.2218 14.7536 41.6782C14.7736 41.8647 14.6893 42.0406 14.6268 42.214C13.335 45.8274 12.5227 49.5437 12.0467 53.3252C11.7452 55.7217 11.5776 58.1304 11.7044 60.5451C11.8425 63.1916 12.2248 65.8102 12.799 68.4044C13.1221 69.8636 13.5079 71.3053 13.9717 72.7296C14.1333 73.2261 14.433 73.6634 14.6068 74.1539C14.6511 74.2793 14.7353 74.3943 14.7423 74.5311C14.771 75.12 14.7649 75.3047 14.056 75.2881C12.6965 75.2567 11.3361 75.2602 9.97652 75.2437C9.21118 75.2341 8.47538 75.0503 7.7361 74.8865C7.53717 74.8421 7.39209 74.7193 7.24267 74.6034C6.66758 74.1556 6.15417 73.6495 5.66856 73.1155C5.49829 72.9282 5.42184 72.7139 5.36711 72.4848C4.83546 70.2478 4.37156 67.9976 3.93199 65.744C3.65227 64.3101 3.56453 62.8545 3.48721 61.398C3.43509 60.4267 3.43161 59.4562 3.43509 58.7262L3.43335 58.728Z" fill="black"/>
<path d="M54.6696 109.565C54.157 109.565 53.6445 109.557 53.1328 109.569C52.8809 109.575 52.768 109.49 52.6863 109.253C52.3258 108.204 51.9253 107.165 51.5631 106.116C51.4684 105.841 51.3181 105.706 51.0192 105.668C49.6727 105.495 48.3262 105.318 46.9832 105.126C46.4411 105.048 46.5071 105.023 46.3838 105.549C46.078 106.857 45.7983 108.169 45.509 109.48C45.502 109.513 45.4985 109.546 45.4916 109.579C45.3613 110.165 45.3422 110.167 44.7263 110.112C43.3554 109.989 41.9837 109.881 40.612 109.766C40.4887 109.755 40.3644 109.755 40.2419 109.739C39.8006 109.682 39.7772 109.645 39.8762 109.23C41.7492 101.412 43.6212 93.5957 45.4933 85.7782C45.5046 85.7294 45.5142 85.6798 45.5203 85.6293C45.5524 85.3636 45.694 85.2756 45.9842 85.2939C47.1821 85.3705 48.3818 85.4237 49.5815 85.4864C49.6693 85.4908 49.7579 85.5012 49.8456 85.5064C50.4126 85.5413 50.7609 85.8128 50.8907 86.3209C52.7958 93.8214 54.7009 101.323 56.6059 108.823C56.7736 109.485 56.7727 109.491 56.0465 109.511C55.5878 109.523 55.1291 109.514 54.6696 109.514C54.6696 109.531 54.6696 109.548 54.6696 109.565ZM48.3019 97.2658C48.1777 97.3608 48.1785 97.5001 48.1499 97.6299C47.9292 98.6291 47.706 99.6274 47.487 100.627C47.4262 100.904 47.2481 101.243 47.3533 101.447C47.4879 101.707 47.924 101.623 48.228 101.687C48.8066 101.809 49.3947 101.892 49.995 101.995C49.916 101.553 48.5443 97.7371 48.3019 97.2658Z" fill="black"/>
<path d="M99.1504 58.6313C99.319 61.2856 98.7309 64.2126 98.0315 67.1239C97.6276 68.8043 97.1889 70.4769 96.5964 72.1102C96.4357 72.5545 96.2376 72.9822 96.0335 73.41C95.7755 73.9501 95.3654 74.3482 94.8486 74.6618C94.6705 74.7698 94.4863 74.87 94.3091 74.9797C93.443 75.5198 92.5282 75.7907 91.4606 75.6775C90.6058 75.5869 89.7318 75.6592 88.8657 75.6505C88.4739 75.647 88.4166 75.5773 88.4201 75.2045C88.4218 74.9789 88.5269 74.7829 88.6121 74.5825C89.1715 73.2619 89.7396 71.943 90.0967 70.557C90.7708 67.9367 91.3077 65.2919 91.6317 62.6097C91.8854 60.512 92.08 58.4109 92.0574 56.2966C92.0226 53.1249 91.6986 49.9792 91.1365 46.8536C90.8481 45.2507 90.4824 43.6679 89.9777 42.1138C89.9464 42.018 89.9177 41.9204 89.9004 41.822C89.8083 41.3028 90.0089 41.0946 90.5632 41.1538C91.2321 41.2253 91.9027 41.2174 92.5734 41.2383C94.1718 41.2871 95.3933 41.9988 96.3202 43.1957C96.8049 43.8221 97.0846 44.5434 97.3496 45.2769C98.3903 48.1568 98.7274 51.1491 98.9732 54.158C99.0853 55.5274 99.147 56.8995 99.1513 58.6304L99.1504 58.6313Z" fill="black"/>
<path d="M60.4525 81.8782C56.2775 81.7127 53.0484 80.0236 51.1486 76.4188C48.9021 72.1564 50.6021 67.0734 54.9779 64.6551C59.6403 62.0783 65.7803 63.439 68.7574 67.7084C72.1142 72.5214 70.0353 78.9007 64.3843 81.1229C63.1299 81.6169 61.8242 81.8747 60.4525 81.8782ZM59.0843 68.1388C58.6951 68.1414 58.3103 68.1771 57.9298 68.2555C55.2385 68.8148 53.5254 71.3062 54.1812 73.7802C54.6999 75.7367 56.0724 76.938 58.1235 77.3509C60.1354 77.756 61.8607 77.1706 63.1803 75.654C63.9517 74.7672 64.3009 73.7166 64.1967 72.5693C63.9656 70.0274 61.7816 68.1492 59.0852 68.1388H59.0843Z" fill="black"/>
<path d="M40.1802 73.3873C40.042 73.6225 40.0134 73.7837 39.9943 73.9527C39.6702 76.8335 39.341 79.7134 39.0117 82.5934C39.0004 82.6936 38.9883 82.7929 38.9709 82.8922C38.9301 83.1274 38.7885 83.245 38.5322 83.2284C38.1091 83.2014 37.6869 83.1736 37.2639 83.15C36.33 83.0978 35.3953 83.0481 34.4614 82.9959C34.391 82.9924 34.3207 82.981 34.2512 82.9715C33.8603 82.914 33.8003 82.8547 33.8559 82.4775C33.9619 81.7641 34.0844 81.0532 34.2008 80.3424C35.007 75.4275 35.814 70.5126 36.621 65.5977C36.6619 65.3494 36.7036 65.1011 36.7479 64.8537C36.7861 64.6394 36.8895 64.5593 37.1483 64.5776C38.2924 64.6595 39.4383 64.7187 40.5841 64.7719C41.0602 64.7945 41.0671 64.7762 41.233 65.1987C41.855 66.7842 42.4718 68.3705 43.0912 69.9568C43.5508 71.1346 44.0086 72.3132 44.4751 73.4884C44.5263 73.6182 44.5255 73.7872 44.7348 73.89C44.7479 73.7427 44.7652 73.619 44.7696 73.4945C44.8504 71.0666 44.9286 68.6388 45.0085 66.2118C45.0241 65.7432 45.0415 65.2745 45.0641 64.8067C45.0823 64.4321 45.1171 64.3877 45.4828 64.3703C46.6816 64.3119 47.8813 64.2596 49.081 64.2135C49.4598 64.1987 49.505 64.2396 49.4919 64.6159C49.4407 66.1221 49.3773 67.6283 49.3199 69.1345C49.2026 72.2305 49.088 75.3273 48.9681 78.4233C48.916 79.7622 48.8552 81.1003 48.7952 82.4392C48.777 82.8486 48.7709 82.8565 48.3331 82.8356C47.3453 82.7885 46.3585 82.7171 45.3699 82.6901C44.992 82.6796 44.8217 82.5246 44.6671 82.2171C43.2867 79.4643 41.8889 76.7194 40.4955 73.9727C40.406 73.7959 40.3079 73.6234 40.181 73.3873H40.1802Z" fill="black"/>
<path d="M63.2038 46.0269C63.1352 47.1907 63.0718 48.2753 63.0075 49.3607C62.9736 49.9287 62.9458 50.4975 62.9024 51.0655C62.8789 51.3722 62.8338 51.3992 62.5063 51.3661C61.7696 51.2911 61.032 51.2162 60.2962 51.1335C59.7863 51.076 59.7785 51.0664 59.7776 50.5751C59.7759 48.365 59.7767 46.1558 59.7776 43.9458C59.7785 41.7532 59.7811 39.5597 59.782 37.367C59.782 36.8557 59.8297 36.8165 60.3927 36.7886C61.3265 36.7424 62.2604 36.691 63.1943 36.637C63.653 36.6109 63.6938 36.6257 63.8328 37.0525C64.374 38.7155 64.9083 40.3811 65.4512 42.0441C65.5051 42.2096 65.5207 42.4013 65.724 42.5894C65.8812 41.6538 66.0289 40.7853 66.1722 39.9159C66.4693 38.1136 66.763 36.3103 67.0609 34.508C67.1652 33.8799 67.259 33.8146 67.9583 33.7797C68.9982 33.7283 70.0372 33.6682 71.0761 33.6072C71.4931 33.5828 71.5557 33.6247 71.4801 34.0132C71.2673 35.0986 71.0414 36.1823 70.8173 37.266C69.8738 41.8316 68.9287 46.3971 67.9844 50.9636C67.967 51.0455 67.9609 51.13 67.9375 51.211C67.8471 51.5255 67.7316 51.6143 67.4084 51.5542C66.8029 51.441 66.2035 51.2981 65.598 51.1831C65.3635 51.1387 65.3 50.9845 65.2288 50.8068C64.6624 49.3999 64.0917 47.9939 63.5174 46.5888C63.4488 46.4215 63.4149 46.236 63.203 46.0278L63.2038 46.0269Z" fill="black"/>
<path d="M45.8424 41.3951C45.8528 42.5006 45.4002 43.6365 44.5323 44.6253C43.734 45.5347 42.7211 46.1567 41.557 46.5661C41.1365 46.7142 41.1356 46.7195 41.2338 47.1341C41.4267 47.9504 41.6256 48.7657 41.8176 49.5829C41.9297 50.0585 41.9175 50.0742 41.3928 50.1587C40.6101 50.285 39.8265 50.4035 39.0438 50.528C38.6007 50.5986 38.5868 50.5969 38.4635 50.1717C37.9127 48.2675 37.3654 46.3623 36.8164 44.4571C35.9833 41.5676 35.1493 38.6781 34.3154 35.7886C34.1972 35.3782 34.2076 35.3417 34.6281 35.2032C37.7633 34.1717 41.7342 34.873 44.1397 37.3583C45.1899 38.4438 45.8093 39.7104 45.8432 41.3951H45.8424ZM39.2792 39.0492C39.7023 40.801 40.0941 42.4187 40.5041 44.1165C41.2086 43.6287 41.742 43.1356 42.0148 42.4344C42.285 41.7392 42.1937 41.0815 41.7229 40.4874C41.1365 39.7461 40.3095 39.3654 39.2783 39.0492H39.2792Z" fill="black"/>
<path d="M50.2181 36.218C50.8001 36.218 51.383 36.2006 51.9633 36.2232C52.5072 36.2442 52.5471 36.2964 52.6236 36.8069C53.2838 41.2139 53.9432 45.6201 54.6016 50.0271C54.7111 50.7563 54.7085 50.751 53.9362 50.7737C53.4428 50.7876 52.9493 50.826 52.4559 50.8469C51.9825 50.8678 51.9477 50.8486 51.8435 50.4157C51.6862 49.7632 51.5325 49.1098 51.3978 48.453C51.3422 48.183 51.238 48.0549 50.9157 48.0601C50.1217 48.0723 49.3277 48.0532 48.5337 48.0288C48.2609 48.0209 48.1219 48.1089 48.0411 48.3624C47.8508 48.9539 47.6328 49.5384 47.4208 50.1238C47.2506 50.5951 47.2375 50.6012 46.745 50.4897C46.0761 50.3373 45.408 50.1831 44.7408 50.0254C44.1249 49.8799 44.1041 49.8503 44.2691 49.2797C44.6418 47.9887 45.0197 46.6986 45.3941 45.4084C46.2281 42.5372 47.0621 39.6659 47.8952 36.7947C47.9282 36.6815 47.9681 36.57 47.9924 36.4558C48.0524 36.1762 48.2313 36.0725 48.525 36.0891C49.0888 36.1205 49.6526 36.1387 50.2164 36.1623V36.2189L50.2181 36.218ZM50.1199 42.8917H49.9818C49.6447 43.8508 49.3068 44.8117 48.9524 45.8213C49.6083 45.8588 50.186 45.9694 50.8149 45.9198C50.5734 44.8683 50.3467 43.8796 50.1199 42.8917Z" fill="black"/>
<path d="M62.4533 108.135C62.5262 108.374 62.3829 108.489 62.1379 108.534C60.9938 108.74 59.8506 108.952 58.7048 109.15C58.399 109.203 58.3034 109.117 58.2287 108.752C58.0828 108.046 57.9472 107.338 57.8082 106.63C56.9682 102.352 56.1229 98.0751 55.2933 93.7943C55.1691 93.1523 55.0388 93.2194 55.7989 93.0478C57.0889 92.7577 58.405 92.6131 59.7064 92.384C59.9835 92.3352 60.2606 92.2986 60.5308 92.2133C60.807 92.1261 60.8644 92.1662 60.8974 92.4589C61.0016 93.391 61.0955 94.3249 61.1875 95.2587C61.3465 96.8764 61.4985 98.4941 61.6566 100.111C61.8921 102.528 62.1284 104.947 62.3664 107.364C62.3907 107.614 62.4229 107.864 62.4541 108.134L62.4533 108.135Z" fill="black"/>
<path d="M27.4795 30.1341C27.4673 30.2525 27.4491 30.3736 27.3292 30.4381C27.2267 30.493 27.1251 30.459 27.0356 30.3945C26.9235 30.3126 26.8106 30.2325 26.7011 30.1489C21.7599 26.3891 16.8195 22.6293 11.8791 18.8695C11.2788 18.4122 11.2753 18.4096 11.787 17.8738C13.1378 16.46 14.4913 15.0479 15.8439 13.6358C15.903 13.5739 15.9586 13.5068 16.0255 13.4537C16.2496 13.2734 16.4251 13.2882 16.6049 13.5068C16.6805 13.5983 16.7387 13.7037 16.8038 13.803C20.2839 19.0995 23.764 24.3951 27.2423 29.6924C27.3344 29.8327 27.4552 29.9616 27.4795 30.1358V30.1341Z" fill="black"/>
<path d="M85.6635 15.5566C85.8877 15.5017 86.0345 15.6211 86.1856 15.7857C87.401 17.1142 88.625 18.4348 89.8455 19.7589C89.9263 19.8469 90.0175 19.9323 90.0749 20.0333C90.1635 20.1901 90.1826 20.353 90.0175 20.4889C89.9506 20.5438 89.8881 20.6022 89.8229 20.6597C85.1249 24.8219 80.4269 28.9842 75.7289 33.1464C75.5369 33.3163 75.3623 33.5105 75.0574 33.494C74.8115 33.4809 74.7446 33.3956 74.8419 33.1743C74.8828 33.082 74.941 32.9966 74.9931 32.9095C78.3715 27.2585 81.7508 21.6075 85.1293 15.9564C85.1727 15.8833 85.217 15.811 85.2596 15.7378C85.343 15.5932 85.4533 15.4982 85.6618 15.5549L85.6635 15.5566Z" fill="black"/>
<path d="M24.3408 83.0377C24.5241 83.0473 24.6049 83.1239 24.5858 83.265C24.5519 83.509 24.3956 83.6832 24.2192 83.8548C22.401 85.6328 20.5871 87.4151 18.7724 89.1957C17.0427 90.8918 15.3123 92.5878 13.5826 94.2839C13.5088 94.3562 13.4384 94.4312 13.3594 94.4974C13.2491 94.5897 13.1309 94.5853 13.031 94.4852C12.9346 94.3885 12.846 94.2831 12.76 94.1777C11.5038 92.6244 10.2476 91.0703 8.99234 89.5162C8.97062 89.4901 8.94978 89.4631 8.92893 89.4352C8.60055 89.0084 8.64573 88.8472 9.15392 88.6591C10.4335 88.1834 11.7149 87.7104 12.9945 87.2356C16.6379 85.8854 20.2822 84.5343 23.9256 83.184C24.0724 83.13 24.2209 83.0795 24.3408 83.0368V83.0377Z" fill="black"/>
<path d="M80.2497 82.8347C81.1957 82.9532 82.1227 83.0699 83.0505 83.1849C85.0633 83.4349 87.0752 83.6849 89.088 83.934C91.1182 84.1858 93.1484 84.4376 95.1786 84.6893C95.8788 84.7756 96.579 84.8601 97.2792 84.9472C97.4364 84.9672 97.5928 84.9942 97.7491 85.0203C97.9524 85.0543 98.0037 85.185 97.9654 85.3549C97.9359 85.4855 97.8907 85.6127 97.8447 85.739C97.4016 86.9577 96.9577 88.1747 96.5138 89.3934C96.4904 89.457 96.4799 89.5249 96.4504 89.5851C96.2471 89.9893 96.0369 90.0703 95.613 89.8839C94.2691 89.2915 92.9112 88.7279 91.5587 88.1529C87.8562 86.5771 84.1546 84.9994 80.453 83.4227C80.3079 83.3608 80.1628 83.299 80.0212 83.2319C79.9213 83.184 79.8458 83.1091 79.8727 82.9941C79.8987 82.8809 79.9952 82.8399 80.1098 82.8356C80.1628 82.8338 80.2158 82.8356 80.2506 82.8356L80.2497 82.8347Z" fill="black"/>
<path d="M60.6359 89.6513C60.6663 89.9318 60.4465 89.9858 60.238 90.0241C59.7706 90.1104 59.3007 90.1809 58.8316 90.2576C57.6501 90.4492 56.4678 90.6391 55.2863 90.8325C54.7694 90.917 54.7234 90.8874 54.6252 90.3891C54.3116 88.7941 54.0006 87.1991 53.6827 85.6058C53.555 84.9655 53.548 84.9698 54.2239 84.8305C55.9292 84.4794 57.6336 84.1248 59.3389 83.772C60.0243 83.63 60.0469 83.6431 60.1112 84.3034C60.2815 86.0361 60.4474 87.7688 60.6159 89.5014C60.6211 89.5511 60.6289 89.6008 60.635 89.6513H60.6359Z" fill="black"/>
<path d="M23.1576 32.4365C22.4913 32.3694 21.8241 32.304 21.1578 32.2335C19.37 32.0436 17.5822 31.8493 15.7944 31.6603C14.4096 31.5131 13.0232 31.3754 11.6393 31.2238C11.0017 31.1541 10.9556 31.0609 11.238 30.4904C11.86 29.2333 12.4828 27.9763 13.1101 26.721C13.3463 26.2488 13.4827 26.2122 13.964 26.4901C17.0071 28.2507 20.0494 30.013 23.0907 31.7753C23.195 31.8362 23.301 31.9007 23.387 31.9826C23.4782 32.0688 23.5121 32.196 23.4686 32.3093C23.4191 32.4373 23.2862 32.4513 23.1568 32.4365H23.1576Z" fill="black"/>
<path d="M58.5455 46.2856C58.5455 47.7247 58.5455 49.1647 58.5455 50.6038C58.5455 51.0255 58.5195 51.0577 58.0651 51.0673C57.3771 51.0812 56.6891 51.0864 56.0002 51.0829C55.5771 51.0812 55.5632 51.0681 55.5354 50.6535C55.4208 48.967 55.3139 47.2796 55.2027 45.5931C55.1271 44.4406 55.0498 43.2881 54.9734 42.1365C54.9421 41.6582 54.9803 41.6147 55.4859 41.6112C56.1922 41.6059 56.8976 41.6112 57.6039 41.6077C57.762 41.6077 57.9227 41.6094 58.079 41.5868C58.529 41.5214 58.5473 41.5275 58.5482 41.9666C58.5508 43.4057 58.549 44.8457 58.549 46.2848H58.5464L58.5455 46.2856Z" fill="black"/>
<path d="M84.086 33.6342C82.2686 33.6874 80.4504 33.7405 78.633 33.7937C78.58 33.7954 78.5271 33.798 78.4741 33.7963C78.3646 33.7937 78.2525 33.7771 78.2135 33.6647C78.1657 33.5262 78.2621 33.4461 78.3759 33.3868C78.4689 33.3389 78.5661 33.2989 78.6626 33.2562C81.8899 31.8232 85.118 30.3902 88.3453 28.958C88.7785 28.7658 89.0576 28.8889 89.1827 29.3274C89.5024 30.459 89.8221 31.5906 90.1374 32.723C90.2929 33.2814 90.1792 33.4339 89.5902 33.4513C87.9665 33.5001 86.3429 33.5436 84.7193 33.5898C84.5073 33.5959 84.2962 33.6116 84.0842 33.6229V33.6342H84.086Z" fill="black"/>
<path d="M88.4173 93.3309C88.3982 93.4363 88.3226 93.5086 88.2479 93.5792C87.4478 94.3362 86.6503 95.0958 85.845 95.8476C85.5949 96.0811 85.5123 96.0689 85.3143 95.7945C83.45 93.2107 81.5875 90.6261 79.7275 88.0388C79.6363 87.9116 79.4443 87.7653 79.6346 87.6067C79.7762 87.4891 79.9682 87.5396 80.128 87.6311C80.2036 87.6747 80.2731 87.7261 80.3452 87.7748C82.8958 89.4866 85.4463 91.1993 87.996 92.911C88.0968 92.979 88.1975 93.0469 88.2948 93.1192C88.3661 93.1724 88.4147 93.2412 88.4164 93.3318L88.4173 93.3309Z" fill="black"/>
<path d="M6.83717 80.3293C7.7832 80.4356 8.71186 80.5375 9.63965 80.6464C11.5308 80.8668 13.4212 81.0907 15.3115 81.3146C15.5478 81.3425 15.8718 81.2928 15.9048 81.6047C15.9361 81.9026 15.6069 81.8834 15.4053 81.9435C13.0685 82.6448 10.7299 83.3391 8.39218 84.036C8.12287 84.1161 7.85791 84.2093 7.58601 84.2808C7.28977 84.3583 7.20464 84.3139 7.14209 84.0255C6.9918 83.3373 6.85628 82.6465 6.71642 81.9566C6.63302 81.5463 6.54528 81.136 6.47579 80.7231C6.41324 80.3502 6.45407 80.3171 6.8363 80.3293H6.83717Z" fill="black"/>
<path d="M58.5604 37.1249C58.5604 37.7782 58.55 38.4316 58.5656 39.084C58.5717 39.3271 58.4701 39.4177 58.2312 39.422C57.154 39.4403 56.0776 39.4656 55.0004 39.4778C54.6998 39.4813 54.6243 39.3828 54.7276 39.1137C54.7806 38.9751 54.765 38.8532 54.752 38.7225C54.6521 37.7059 54.5522 36.6884 54.4479 35.6718C54.3897 35.103 54.4731 34.9897 55.0786 34.934C56.0629 34.8434 57.048 34.7624 58.0331 34.6892C58.5474 34.6509 58.6143 34.7206 58.616 35.2154C58.6178 35.8513 58.616 36.4881 58.616 37.124H58.5604V37.1249Z" fill="black"/>
<path d="M2.10332 54.6746C2.13981 54.6772 2.22842 54.6746 2.31529 54.6885C2.63932 54.7399 2.73488 54.8506 2.68449 55.1703C2.37523 57.1155 2.49077 59.0738 2.48729 61.0286C2.48729 61.5112 2.57069 61.9938 2.5898 62.4782C2.61065 62.9887 2.49511 63.0766 1.97823 63.0052C1.04523 62.8771 0.48056 62.4085 0.276412 61.5199C0.0740007 60.6375 -0.0302453 59.7454 0.00884696 58.8325C0.0505453 57.8743 0.171297 56.9361 0.437124 56.0127C0.469267 55.9003 0.50054 55.7862 0.54137 55.6764C0.816753 54.9464 1.22766 54.6755 2.10332 54.6746Z" fill="black"/>
<path d="M101.998 58.0067C102.007 58.998 101.9 59.9737 101.61 60.931C101.349 61.7978 100.988 61.8222 100.328 61.891C99.8661 61.9389 99.7306 61.7917 99.7497 61.3387C99.7957 60.2699 99.9174 59.2053 99.8904 58.1321C99.8626 57.0467 99.8904 55.9595 99.7323 54.8793C99.6637 54.4054 99.7706 54.3183 100.276 54.3488C100.889 54.3854 101.474 54.8262 101.657 55.4299C101.862 56.1067 101.974 56.801 101.996 57.5058C102.001 57.673 101.996 57.8403 101.996 58.0075L101.998 58.0067Z" fill="black"/>
</g>
<defs>
<clipPath id="clip0_5_529">
<rect width="102" height="111" fill="white"/>
</clipPath>
</defs>
</svg>
